<svg width="16" height="20" viewBox="0 0 16 20" fill="none" xmlns="http://www.w3.org/2000/svg">
<path d="M15.5705 8.0405C15.8852 5.93914 14.2842 4.80927 12.0966 4.05534L12.8064 1.20808L11.074 0.776981L10.3822 3.54905C9.92705 3.43477 9.45984 3.32848 8.99366 3.22222L9.69044 0.432102L7.95802 0L7.2482 2.84625C6.87125 2.76003 6.5003 2.67583 6.14139 2.58559L6.14339 2.57656L3.7533 1.98005L3.29212 3.83077C3.29212 3.83077 4.57841 4.12552 4.55133 4.14356C5.25313 4.31902 5.37944 4.7832 5.35839 5.15214L4.55033 8.39541C4.59845 8.40744 4.66061 8.42548 4.7308 8.45255L4.54733 8.40744L3.41444 12.951C3.32822 13.1636 3.11066 13.4834 2.61941 13.3621C2.63745 13.3871 1.36019 13.0483 1.36019 13.0483L0.5 15.0313L2.75575 15.5938C3.17483 15.6991 3.58588 15.8094 3.98991 15.9125L3.27308 18.7919L5.00449 19.223L5.7143 16.3758C6.1875 16.5031 6.64667 16.6214 7.09583 16.7336L6.38802 19.5689L8.12044 20L8.83727 17.1267C11.7928 17.6861 14.0145 17.4605 14.9498 14.7877C15.7038 12.6362 14.9128 11.3941 13.3578 10.585C14.4906 10.3243 15.3428 9.57942 15.5705 8.0405ZM11.6103 13.5927C11.076 15.7452 7.45174 14.5812 6.27673 14.2894L7.22916 10.4747C8.40416 10.7685 12.1708 11.3489 11.6103 13.5927ZM12.1467 8.00942C11.6585 9.96742 8.64277 8.97188 7.66527 8.72825L8.52747 5.26944C9.50497 5.51306 12.656 5.96722 12.1467 8.00942Z" fill="#11B3FE"/>
</svg>
